<svg width="16" height="11" viewBox="0 0 16 11" fill="none" xmlns="http://www.w3.org/2000/svg">
<path d="M14.4 2.79996C13.96 2.79996 13.6 2.43996 13.6 1.99996C13.6 1.55996 13.96 1.19996 14.4 1.19996V0.399963H1.6V1.19996C2.04 1.19996 2.4 1.55996 2.4 1.99996C2.4 2.43996 2.04 2.79996 1.6 2.79996H0V8.39996H1.6C2.04 8.39996 2.4 8.75996 2.4 9.19996C2.4 9.63996 2.04 9.99996 1.6 9.99996V10.8H14.4V9.99996C13.96 9.99996 13.6 9.63996 13.6 9.19996C13.6 8.75996 13.96 8.39996 14.4 8.39996H16V2.79996H14.4ZM14.4 5.99996H13.6V6.79996H12V5.99996H9.128C8.96 6.46396 8.52 6.79996 8 6.79996C7.48 6.79996 7.04 6.46396 6.872 5.99996H4V6.79996H2.4V5.99996H1.6V5.19996H2.4V4.39996H4V5.19996H6.872C7.04 4.73596 7.48 4.39996 8 4.39996C8.52 4.39996 8.96 4.73596 9.128 5.19996H12V4.39996H13.6V5.19996H14.4V5.99996Z" fill="white"/>
</svg>
