<svg width="16" height="6" viewBox="0 0 16 6" fill="none" xmlns="http://www.w3.org/2000/svg">
<path d="M14.5455 2.27276C13.0909 2.27276 12.3636 0.0909424 10.1818 0.0909424C8 0.0909424 8 1.54549 8 1.54549C8 1.54549 8 0.0909424 5.81818 0.0909424C3.63636 0.0909424 2.90909 2.27276 1.45455 2.27276C0.727273 2.27276 0 1.54549 0 1.54549C0 1.54549 0.727273 5.18185 3.63636 5.18185C7.27273 5.18185 8 3.00003 8 3.00003C8 3.00003 8.72727 5.18185 12.3636 5.18185C15.2727 5.18185 16 1.54549 16 1.54549C16 1.54549 15.2727 2.27276 14.5455 2.27276Z" fill="white"/>
</svg>
